<?xml version="1.0" encoding="utf-8"?>
<!-- Generator: Adobe Illustrator 24.0.2, SVG Export Plug-In . SVG Version: 6.00 Build 0)  -->
<svg version="1.1" id="Layer_1" xmlns="http://www.w3.org/2000/svg" xmlns:xlink="http://www.w3.org/1999/xlink" x="0px" y="0px"
	 viewBox="0 0 5860.3 1212.5" style="enable-background:new 0 0 5860.3 1212.5;" xml:space="preserve">
<style type="text/css">
	.st0{fill:#0793D7;}
	.st1{fill:#04A0DC;}
	.st2{fill:#FFFFFF;}
	.st3{fill:url(#SVGID_1_);}
	.st4{fill:#FFFFFF;stroke:#059FDC;stroke-width:4;stroke-miterlimit:10;}
	.st5{fill:none;stroke:#059FDC;stroke-width:4;stroke-miterlimit:10;}
	.st6{fill:#04A1DD;}
	.st7{fill:none;}
</style>
<title>mj_n_logo</title>
<g id="Layer_4">
	<path class="st0" d="M2547.2,450.9l-71.6,146.7c-6.1,12.2-12.6,20.9-19.5,26.1s-15.1,7.7-24.6,7.7c-11.7,0.2-22.9-4.4-30.9-12.9
		c-8.4-8.6-19.3-24.2-32.7-46.7l-66.5-120.9v162.2c0,16.4-3.7,28.5-11.2,36.1c-7.4,7.6-18.6,11.5-33.6,11.5
		c-16.8,0-29-3.7-36.7-11.2c-7.6-7.4-11.5-22.1-11.5-43.8V355.8c0-29.4,6.7-51.6,20.1-66.5c13.4-14.9,35.9-22.4,67.6-22.3
		c11.8,0,22.1,2,30.9,6c8.8,4,15.4,8.6,19.8,13.7c4.9,6,9.2,12.4,12.9,19.2l76.8,167.9l81.4-165c14.1-27.5,39.5-41.2,76.2-41.2
		c17.2,0,31.9,3,44.1,8.9c12.2,5.9,21.9,15.5,28.9,28.6c7.1,13.2,10.6,29.7,10.6,49.6v249.2c-0.4,37.8-24.3,56.7-71.6,56.7
		c-17.2,0-31.2-4.7-42.1-14c-10.9-9.4-16.5-24.5-16.9-45.5L2547.2,450.9z"/>
	<path class="st0" d="M2986.6,573.5h-95.2v30.4c0,19.5-5.2,33.8-15.5,43c-10.3,9.2-28.1,13.8-53.2,13.8c-10.7,0-19.5-1.5-26.4-4.6
		s-12.9-8.2-18.1-15.5c-5.2-7.3-9-17.9-11.5-31.8c-2.8-16.7-4.7-33.5-5.7-50.4c-1.3-19.7-2-44.6-2-74.8c0-26.3,2.8-50.5,8.3-72.5
		c5.5-22,13-40.6,22.3-55.9c8.9-14.7,19.6-28.3,31.8-40.4c11.2-11.2,24.3-20.4,38.7-27.2c13-6.2,26.7-11.1,40.6-14.6
		c13-3.2,26.4-4.9,39.8-4.9c16.1,0,32.1,2.2,47.6,6.6c15.6,4.4,31.5,11.9,47.6,22.6c16.2,10.8,30.4,24.3,42.1,39.8
		c12,15.9,21.9,36.4,29.5,61.6c7.6,25.2,11.4,53.5,11.4,84.8c0,50.4-1.8,87.8-5.4,112c-3.6,24.3-9.7,41.2-18.3,50.7
		c-8.6,9.5-21.9,14.3-39.8,14.3c-25.2,0-43-4.6-53.3-13.8c-10.3-9.2-15.5-23.5-15.5-43L2986.6,573.5z M2939.6,361.5
		c-16.4,0-28.6,4.8-36.4,14.3c-7.8,9.5-11.7,26.5-11.7,51v67.6h95.2v-68.8c0-16-1.9-28.9-5.7-38.7s-9.1-16.4-15.8-20.1
		C2958.5,363.4,2949.9,361.5,2939.6,361.5L2939.6,361.5z"/>
	<path class="st0" d="M3538.9,450.9l-71.6,146.7c-6.1,12.2-12.6,20.9-19.5,26.1s-15.1,7.7-24.6,7.7c-11.7,0.2-22.9-4.4-30.9-12.9
		c-8.4-8.6-19.3-24.2-32.7-46.7l-66.5-120.9v162.2c0,16.4-3.7,28.5-11.2,36.1s-18.6,11.5-33.6,11.5c-16.8,0-29-3.7-36.7-11.2
		s-11.5-22.1-11.5-43.8V355.8c0-29.4,6.7-51.6,20.1-66.5c13.4-14.9,35.9-22.4,67.6-22.3c11.8,0,22.1,2,30.9,6
		c8.8,4,15.4,8.6,19.8,13.7c4.9,6,9.2,12.4,12.9,19.2l76.8,167.9l81.4-165c14.1-27.5,39.5-41.2,76.2-41.2c17.2,0,31.9,3,44.1,8.9
		c12.2,5.9,21.9,15.5,28.9,28.6c7.1,13.2,10.6,29.7,10.6,49.6v249.2c-0.4,37.8-24.3,56.7-71.6,56.7c-17.2,0-31.2-4.7-42.1-14
		c-10.9-9.4-16.5-24.5-16.9-45.5L3538.9,450.9z"/>
	<path class="st0" d="M4112.5,336.9v170.7c0,55.8-13.5,95.8-40.4,120c-26.9,24.2-72.3,36.4-136.1,36.4c-60.7,0-105.3-13-133.8-39
		c-28.5-26-42.7-65.1-42.7-117.5V336.9c0-20.2,6-36.8,18-49.6c12-12.8,27.2-19.2,45.5-19.2c22.5,0,39.6,4.2,51.3,12.6
		c11.6,8.4,17.5,25.4,17.5,51v186.8c0.4,12.2,2.4,22,6,29.2c3.6,7.2,8.5,12.3,14.6,15.2c6.1,2.9,13.9,4.3,23.5,4.3
		c9.6,0,17.4-1.2,23.5-3.4c6.1-2.3,10.6-5.9,13.5-10.9c2.7-4.6,4.7-9.6,5.7-14.9c1.1-6.4,1.6-13,1.4-19.5V331.2
		c0-13,1.6-23.9,4.9-32.7s8.2-15.3,14.9-19.5c6.3-4.1,13.3-7,20.6-8.6c8.4-1.7,16.9-2.4,25.5-2.3c22.1,0,38.8,5.3,49.8,16
		C4106.9,294.9,4112.4,312.5,4112.5,336.9z"/>
	<path class="st0" d="M4335.4,574.7c0,57.3-22.3,85.9-67,85.9c-22.5,0-39.1-6-49.6-18.1s-15.8-33.3-15.8-63.9V336.9
		c0-22.2,6-39.1,18-50.7c12-11.7,27.8-17.5,47.3-17.5h120.3c47,0,85,11,114,33c29,22,43.5,50.1,43.5,84.5c0,26-5.4,46.3-16.3,61
		s-28.4,25.5-52.4,32.4c18.3,1.1,35.3,10,51,26.6c15.7,16.6,23.5,37.3,23.5,62.2c0,25.2-2.4,44.6-7.2,58.2
		c-4.8,13.6-11.5,22.6-20.3,27.2c-8.8,4.6-21.2,6.9-37.2,6.9c-22.5,0-39.1-4.7-49.6-14c-10.5-9.4-15.7-23.6-15.8-42.7
		c0-23.7-2.3-41.9-6.9-54.7c-4.6-12.8-10.5-21.1-17.8-24.9c-7.3-3.8-17.4-5.7-30.4-5.7l-31.5,0.6L4335.4,574.7z M4423,382.2
		c0-18.3-6.7-30.9-20.1-37.8c-13.4-6.9-35.9-10.3-67.6-10.3v99.1c29.8,0,51.8-3.7,66.2-11.2C4415.9,414.5,4423,401.3,4423,382.2z"/>
	<path class="st0" d="M4731.8,546.6c0,11.1,3.2,19.9,9.7,26.4c6.5,6.5,13.8,9.7,21.8,9.7c9.5,0,16.4-2.6,20.6-7.7
		c4.2-5.2,6.3-14.6,6.3-28.4V336.9c0-23.3,5.1-40.6,15.2-51.9c10.1-11.3,26.8-16.9,50.1-16.9c20.6,0,36.9,4.8,48.7,14.3
		c11.8,9.5,17.8,26,17.7,49.3v212.6c0,42-12.7,72.6-38.1,91.7c-25.4,19.1-62.7,28.6-112,28.6c-14.6,0.1-29.2-1.1-43.5-3.4
		c-12.1-2-24-5.1-35.5-9.4c-9.9-3.8-19.4-8.5-28.4-14c-8.1-4.9-15.4-10.9-21.8-17.8c-5.8-6.3-11.1-13.1-15.8-20.3
		c-4.4-6.8-8-14.1-10.6-21.8c-2.3-6.9-4.3-14-5.7-21.2c-1.3-6.7-2-13.5-2-20.3c0-25.6,4.3-43.1,12.9-52.4c8.6-9.4,25.5-14,50.7-14
		c20.2,0,35.8,3.6,46.7,10.9c10.9,7.3,16.3,17.2,16.3,29.8c-0.2,6.1-0.8,12.3-1.7,18.3C4732.7,534.8,4732.1,540.7,4731.8,546.6z"/>
	<path class="st0" d="M5301.9,641.4c-30.2,15.1-64.1,22.6-101.7,22.6s-71.4-7.6-101.4-22.6c-30-15.1-54-37.7-71.9-67.9
		C5009,543.4,5000,507.8,5000,467c0-61.9,18.6-111.1,55.9-147.5s85.5-54.7,144.7-54.7c59.2,0,107.5,18.2,145,54.7
		c37.4,36.5,56.1,85.7,56.1,147.5c0,40.9-9.1,76.4-27.2,106.6C5356.3,603.7,5332.1,626.3,5301.9,641.4z M5200.5,580.4
		c13,0,24.2-5.7,33.5-17.2c9.4-11.5,16.1-25.6,20.1-42.4c4.1-17.7,6.1-35.7,6-53.9c0.1-18.6-2-37.2-6.3-55.3
		c-4.2-17.4-11-32.2-20.3-44.4c-9.4-12.2-20.3-18.3-33-18.3c-12.2,0-22.9,6.1-32.1,18.3c-9.2,12.2-16,27.1-20.6,44.7
		c-4.6,18-6.9,36.5-6.9,55c-0.1,18.2,2.1,36.3,6.6,53.9c4.4,16.8,11.3,31,20.6,42.4S5188.4,580.4,5200.5,580.4z"/>
	<path class="st0" d="M5618.2,574.7c0,57.3-22.3,85.9-67,85.9c-22.5,0-39.1-6-49.6-18.1s-15.8-33.3-15.8-63.9V336.9
		c0-22.2,6-39.1,18.1-50.7c12-11.7,27.8-17.5,47.3-17.5h120.3c47,0,85,11,114,33c29,22,43.6,50.1,43.6,84.5c0,26-5.4,46.3-16.3,61
		c-10.9,14.7-28.4,25.5-52.4,32.4c18.3,1.1,35.3,10,51,26.6c15.7,16.6,23.5,37.3,23.5,62.2c0,25.2-2.4,44.6-7.2,58.2
		c-4.8,13.6-11.6,22.6-20.4,27.2c-8.8,4.6-21.2,6.9-37.2,6.9c-22.5,0-39.1-4.7-49.6-14c-10.5-9.4-15.8-23.6-15.8-42.7
		c0-23.7-2.3-41.9-6.9-54.7c-4.6-12.8-10.5-21.1-17.8-24.9c-7.3-3.8-17.4-5.7-30.4-5.7l-31.5,0.6L5618.2,574.7z M5705.9,382.2
		c0-18.3-6.7-30.9-20.1-37.8c-13.4-6.9-35.9-10.3-67.6-10.3v99.1c29.8,0,51.9-3.7,66.2-11.2C5698.7,414.5,5705.9,401.3,5705.9,382.2
		z"/>
	<rect x="2206.8" y="737.9" class="st0" width="3626.7" height="10.4"/>
	<path class="st1" d="M2250,1002.7h-40.8V818.1h40.8V1002.7z"/>
	<path class="st1" d="M2412.1,858.9c7.1-0.1,13.9,2.8,18.7,7.9c5,5.1,7.7,12.1,7.6,19.3v55.4H2357v40.3h60.7v-20.4h20.7v18.1
		c0,7.6-3.4,13.6-10.2,18.1c-6.3,4-13.6,6-21,5.8H2348c-4.8,0.1-9.6-0.5-14.3-1.8c-3.7-1.2-7.3-3.6-10.8-7.3
		c-4.5-5.3-6.7-12.4-6.7-21.3v-84.9c0-9.3,2.7-16.5,8.2-21.6s12.7-7.6,21.9-7.6H2412.1z M2397.6,920.5v-40.6H2357v40.6H2397.6z"/>
	<path class="st1" d="M2608.5,858.9l20.7,21.3v123.1h-90c-11.4,0-20.5-5.5-27.2-16.5c-6.7-11-10-23.4-10-37.2v-2.9
		c-0.2-11.8,3.8-23.3,11.1-32.5c7.4-9.4,16.8-14.2,28.3-14.2h47.6v-20.1h-50.5v10.8h-31.8l21.6-31.8H2608.5z M2589,981.7v-60.7
		h-41.1v60.7L2589,981.7z"/>
	<path class="st1" d="M2695.5,858.9h40.8v22.8c2.3-7,7-12.9,13.3-16.6c6.5-4.1,14-6.2,21.7-6.1h26v21h-18.1c-4-0.1-7.9,0.3-11.8,1.2
		c-3,0.8-6.3,2.7-9.8,5.8c-4.9,3.3-9.5,7.1-13.7,11.4c-5.1,5.2-7.6,9.8-7.6,13.7v90.8h-40.8L2695.5,858.9z"/>
	<path class="st1" d="M2857.4,858.9h89.9c4.9-0.1,9.7,0.4,14.4,1.5c3.8,1,7.3,3,10.1,5.8c2.9,2.8,5,6.3,6.1,10.2
		c1.2,4.1,1.8,8.3,1.8,12.5v113.8h-40.9V879.9h-40.6v122.8h-40.9V858.9z"/>
	<path class="st1" d="M3261.5,921.1h-102.1v-21h102.1V921.1z"/>
	<path class="st1" d="M3480.1,981.7h40.6V858.9h40.3v122.8h40.6V858.9h40.9v102.8l-40.6,41h-162.6V858.9h40.9L3480.1,981.7z"/>
	<path class="st1" d="M3735.1,858.9h64.8c8.4,0,15.1,2.7,20.1,8.2c5.1,5.4,7.6,12.5,7.6,21v85.8c0,9.9-3.7,17.4-11.1,22.5
		c-6.4,4.3-14.7,6.4-24.8,6.4h-55.2c-8.1,0.2-16-2.8-22-8.3c-6.1-5.5-9.2-12.7-9.2-21.4v-84.9c-0.1-4.2,0.2-8.4,1-12.5
		c1-3.4,2.8-6.6,5.3-9.2c2.5-3,5.8-5.1,9.5-6.1C3725.6,859.2,3730.4,858.8,3735.1,858.9z M3786.7,981.7V879.9h-40.6v101.8H3786.7z"
		/>
	<path class="st1" d="M3894.7,858.9h40.9v22.8c2.3-7,7-12.9,13.3-16.6c6.5-4.1,14.1-6.2,21.7-6.1h26v21h-18.1
		c-4-0.1-7.9,0.3-11.8,1.2c-3,0.8-6.3,2.7-9.8,5.8c-4.9,3.3-9.5,7.1-13.7,11.4c-5.1,5.2-7.6,9.8-7.6,13.7v90.8h-40.9L3894.7,858.9z"
		/>
	<path class="st1" d="M4059.8,818.1h40.9v94.8l62.1-53.4h19l0.1,17.8l-52.9,47.8l-0.3,10.5l53.2,48l-0.1,19.7h-20.7l-60.4-54v54
		h-40.9V818.1z"/>
	<path class="st1" d="M4460.4,921.1h-102.1v-21h102.1V921.1z"/>
	<path class="st1" d="M4730.6,940.5c4.4,3.6,7.4,8.7,8.5,14.3c0.6,6.2,1.3,12.3,2,18.3v3.2c0,8.1-2.8,14.6-8.3,19.3
		s-12.3,7.1-20.3,7.1H4667c-6.8,0-13.4-2-19-5.8c-6.6-4.5-9.9-10-9.9-16.6v-19h20.7v20.4h40.6v-19.5l-53.2-44.6
		c-3-2.6-5.4-6-6.8-9.8c-1.5-4.1-2.2-8.4-2.2-12.7v-6.5c0-11.3,3.1-19.3,9.3-24.2c4.9-3.7,12-5.5,21.3-5.5h44.6
		c8.2,0,14.8,2.5,20,7.5c5.2,5,7.7,11.8,7.7,20.4v14.1h-21.3v-21h-40V900L4730.6,940.5z"/>
	<path class="st1" d="M4839.1,1002.7c-9.7,0-17.6-2.2-23.6-6.7c-6.8-5.1-10.2-12.4-10.2-22.2v-115h40.9v122.8h40.6V858.9h40.9v143.8
		H4839.1z"/>
	<path class="st1" d="M5097.9,900.9h-21.3v-21h-40v101.8h40v-20.4h21.3v14.9c0.2,7.5-3.3,14.7-9.3,19.3c-6.1,4.8-13.7,7.4-21.5,7.3
		h-40.6c-9.1,0-16.5-2.3-22.2-7c-5.7-4.7-8.6-11.5-8.6-20.4v-85.8c0-9.1,2.7-16.5,8.2-22.2c5.4-5.6,12.8-8.5,22.2-8.5h42
		c8.9,0,16.1,2.2,21.6,6.5c5.5,4.3,8.2,11,8.2,19.8L5097.9,900.9z"/>
	<path class="st1" d="M5268.3,900.9H5247v-21h-40v101.8h40v-20.4h21.3v14.9c0.2,7.5-3.3,14.7-9.3,19.3c-6.1,4.8-13.7,7.4-21.5,7.3
		h-40.6c-9.1,0-16.5-2.3-22.2-7c-5.7-4.7-8.6-11.5-8.6-20.4v-85.8c0-9.1,2.7-16.5,8.2-22.2c5.5-5.6,12.8-8.5,22.2-8.5h42
		c8.9,0,16.1,2.2,21.6,6.5s8.2,11,8.2,19.8L5268.3,900.9z"/>
	<path class="st1" d="M5431.1,858.9c7.1-0.1,13.9,2.8,18.7,7.9c5,5.1,7.7,12.1,7.6,19.3v55.4H5376v40.3h60.7v-20.4h20.7v18.1
		c0,7.6-3.4,13.6-10.2,18.1c-6.3,4-13.6,6-21,5.8h-59.2c-4.8,0.1-9.6-0.5-14.3-1.8c-3.7-1.2-7.3-3.6-10.8-7.3
		c-4.5-5.3-6.7-12.4-6.7-21.3v-84.9c0-9.3,2.7-16.5,8.2-21.6s12.7-7.6,21.9-7.6H5431.1z M5416.5,920.5v-40.6H5376v40.6H5416.5z"/>
	<path class="st1" d="M5618.4,858.9c7.1-0.1,13.9,2.8,18.7,7.9c5,5.1,7.7,12.1,7.6,19.3v55.4h-81.4v40.3h60.7v-20.4h20.7v18.1
		c0,7.6-3.4,13.6-10.2,18.1c-6.3,4-13.6,6-21,5.8h-59.2c-4.8,0.1-9.6-0.5-14.3-1.8c-3.7-1.2-7.3-3.6-10.8-7.3
		c-4.5-5.3-6.7-12.4-6.7-21.3v-84.9c0-9.3,2.7-16.5,8.2-21.6c5.4-5.1,12.7-7.6,21.9-7.6H5618.4z M5603.9,920.5v-40.6h-40.6v40.6
		H5603.9z"/>
	<path class="st1" d="M5830,1002.7h-89.9c-5.1,0.1-10.2-0.4-15.2-1.5c-3.7-1-7.2-3.3-10.5-7c-4.5-5.1-6.7-12.2-6.7-21.3v-86.1
		c0-8.8,2.7-15.6,8-20.6c5.4-5,12.4-7.4,21.2-7.4h52.2v-40.9h40.9V1002.7z M5789.1,982.3V879.9h-40.6v102.4H5789.1z"/>
	<path class="st2" d="M1855.5,179.7c2,5.3-0.7,11.2-6,13.1c-5.3,2-11.2-0.7-13.1-6c-2-5.3,0.7-11.2,6-13.1
		C1847.6,171.7,1853.5,174.4,1855.5,179.7C1855.5,179.7,1855.5,179.7,1855.5,179.7z"/>
	
		<linearGradient id="SVGID_1_" gradientUnits="userSpaceOnUse" x1="41.9542" y1="584.6531" x2="2097.7419" y2="584.6531" gradientTransform="matrix(1 0 0 -1 -16.41 1227.9497)">
		<stop  offset="0" style="stop-color:#0A82D0"/>
		<stop  offset="1" style="stop-color:#04A2DD"/>
	</linearGradient>
	<path class="st3" d="M78.3,629.9c8.5-11.4,30.7-32.2,31.8-33.6C124.5,579.2,805.2-13,1283.6,106.1c4.6,1.2,9.2,2.6,13.6,4.3
		c21.3,8.1,34.4,13.5,65.1,41.6c36.4,33.4-0.5,57.8,151.2-14.9c182-87.2,379.6-16.2,385.6-13c15.7,8.5,280.8,68.3,142.3,575.1
		c-0.5,2-130.3,470.7-584.1,496.3c-80.3,4.5-302.5-5.7-408.6-112c-5-5.1-9.7-10.6-13.8-16.4c-5.4-7.5-23.6-28.6-32.2-63.2
		c-6.7-26.9,2.3-57-44.5-60.3c4.7,0-621,25.1-737.9-3.5C218.7,939.7-96.4,864.8,78.3,629.9z"/>
	<path class="st2" d="M817,561.7l-56.9,104.7c0,0-25.9,75.6-135.2,74.3L282,742.3c0,0-68.1-0.4,131.8-135.8
		c29.2-19.8,655.6-518.6,912.3-241.1c18.3,19.8,74.3,60,98.1,47.2c7.3-4,14.1-8.7,20.4-14.1c8.9-7.6,19.6-12.4,29.6-18.4
		c92.3-55.1,467.6-179.1,420.8,119.2c0,0-82.1,684.2-661.6,477.3c0,0.8-101.4-34.6,48.3-42.6c14.9-2.1,187,17.2,327.9-359.9
		c33.6-90-119.6-226.4-285.3,60.1c-4.7,8.1-13.3,28.8-18.6,36.5c-12.8,18.4-44,64.6-154.3,60.6h-96.6c0,0-78.8,13.9,14.7-93.7
		c5.8-6.7,10.8-14.1,14.7-22c18.5-37.6,50.2-131-68-159.6c0,0-52.8-14.1-117,22C864.4,497.5,835.9,526.6,817,561.7z"/>
	<path class="st4" d="M1862.4,202.3c0,40.9-33.2,74.1-74.1,74c-40.9,0-74.1-33.2-74-74.1c0-40.9,33.2-74,74.1-74
		C1829.2,128.2,1862.4,161.4,1862.4,202.3C1862.4,202.3,1862.4,202.3,1862.4,202.3z"/>
	<path class="st5" d="M1862.4,202.3c0,40.9-33.2,74.1-74.1,74c-40.9,0-74.1-33.2-74-74.1c0-40.9,33.2-74,74.1-74
		C1829.2,128.2,1862.4,161.4,1862.4,202.3C1862.4,202.3,1862.4,202.3,1862.4,202.3z"/>
	<path class="st2" d="M1788.3,281.6c-43.8,0-79.3-35.5-79.3-79.3s35.5-79.3,79.3-79.3c43.8,0,79.3,35.5,79.3,79.3
		C1867.5,246.1,1832.1,281.5,1788.3,281.6z M1788.3,126.3c-42,0-76,34-76,76c0,42,34,76,76,76c42,0,76-34,76-76c0,0,0,0,0,0
		C1864.2,160.4,1830.2,126.4,1788.3,126.3L1788.3,126.3z"/>
	<polygon class="st2" points="1911.5,181.6 1870.6,151.8 1846.9,183 1844,180.9 1869.8,146.8 1913.6,178.6 	"/>
	<path class="st2" d="M1922,176.3c2,5.4-0.4,11.4-5.5,13.2c-5.1,1.9-10.8-1-12.8-6.4c-2-5.4,0.4-11.4,5.5-13.2
		C1914.3,168,1920,170.8,1922,176.3z"/>
	<polygon class="st2" points="1913.7,178 1910.2,178.8 1897.5,123.5 1901.6,125.2 	"/>
	<path class="st2" d="M1879.5,145.8c2,5.3-0.7,11.2-6,13.1c-5.3,2-11.2-0.7-13.1-6c-2-5.3,0.7-11.2,6-13.1
		C1871.6,137.8,1877.5,140.5,1879.5,145.8C1879.5,145.8,1879.5,145.8,1879.5,145.8z"/>
	<path class="st6" d="M1739.4,214.6c0,5.6-4.6,10.2-10.2,10.2c-5.6,0-10.2-4.6-10.2-10.2c0-5.6,4.6-10.2,10.2-10.2c0,0,0,0,0,0
		C1734.8,204.4,1739.4,209,1739.4,214.6z"/>
	<polygon class="st6" points="1791.2,235.9 1763.2,193.7 1730.1,214.8 1728.2,211.8 1764.3,188.8 1794.2,233.9 	"/>
	<path class="st6" d="M1802.9,234.9c0,5.6-4.6,10.2-10.2,10.2c-5.6,0-10.2-4.6-10.2-10.2c0-5.6,4.6-10.2,10.2-10.2
		S1802.9,229.3,1802.9,234.9C1802.9,234.9,1802.9,234.9,1802.9,234.9z"/>
	<polygon class="st6" points="1794.5,233.4 1790.9,232.9 1801.5,152.5 1846.9,182.9 1844.9,185.9 1804.3,158.7 	"/>
	<path class="st6" d="M1856.1,183.2c0,5.6-4.6,10.2-10.2,10.2c-5.6,0-10.2-4.6-10.2-10.2c0-5.6,4.6-10.2,10.2-10.2
		C1851.5,173,1856.1,177.6,1856.1,183.2C1856.1,183.2,1856.1,183.2,1856.1,183.2z"/>
	<path class="st6" d="M1773.6,191.3c0,5.6-4.6,10.2-10.2,10.2c-5.6,0-10.2-4.6-10.2-10.2c0-5.6,4.6-10.2,10.2-10.2
		S1773.6,185.6,1773.6,191.3C1773.6,191.3,1773.6,191.3,1773.6,191.3z"/>
	<path class="st6" d="M1813.2,155.6c0,5.6-4.6,10.2-10.2,10.2c-5.6,0-10.2-4.6-10.2-10.2c0-5.6,4.6-10.2,10.2-10.2c0,0,0,0,0,0
		C1808.6,145.4,1813.1,149.9,1813.2,155.6z"/>
	<polygon class="st6" points="1947.4,111.8 1943.9,111.3 1954.5,30.9 1957.3,37.1 	"/>
	<path class="st6" d="M1966.1,34c0,5.6-4.6,10.2-10.2,10.2s-10.2-4.6-10.2-10.2c0-5.6,4.6-10.2,10.2-10.2
		C1961.5,23.8,1966.1,28.3,1966.1,34C1966.1,34,1966.1,34,1966.1,34z"/>
	<path class="st6" d="M1954,109.5c2,5.3-0.7,11.2-6,13.2c-5.3,2-11.2-0.7-13.2-6c-2-5.3,0.7-11.2,6-13.2c0,0,0,0,0,0
		C1946.1,101.6,1952,104.3,1954,109.5z"/>
	<path class="st6" d="M1904.1,98.6c2,5.3-0.7,11.2-6,13.1s-11.2-0.7-13.1-6c-2-5.3,0.7-11.2,6-13.1
		C1896.2,90.6,1902.1,93.3,1904.1,98.6C1904.1,98.6,1904.1,98.6,1904.1,98.6z"/>
	<polygon class="st6" points="1944.4,116 1945.3,112.5 1892.1,99.7 1897.5,123.5 1901.6,125.2 1896.9,104.6 	"/>
	<line class="st7" x1="1901.6" y1="125.2" x2="1901.6" y2="125.2"/>
	<line class="st7" x1="1897.5" y1="123.5" x2="1897.5" y2="123.5"/>
	<line class="st7" x1="1901.6" y1="125.2" x2="1897.5" y2="123.5"/>
</g>
</svg>
